<?xml version="1.0" encoding="utf-8"?>
<!-- Generator: Adobe Illustrator 22.1.0, SVG Export Plug-In . SVG Version: 6.00 Build 0)  -->
<svg version="1.1" id="Layer_1" xmlns="http://www.w3.org/2000/svg" xmlns:xlink="http://www.w3.org/1999/xlink" x="0px" y="0px"
	 viewBox="0 0 468 540" style="enable-background:new 0 0 468 540;" xml:space="preserve">
<style type="text/css">
	.st0{fill:none;stroke:#EBEBEB;stroke-width:0.53;stroke-linejoin:round;stroke-miterlimit:10;}
	.st1{fill:none;stroke:#EBEBEB;stroke-width:1.07;stroke-linejoin:round;stroke-miterlimit:10;}
	.st2{fill:#00A588;}
	.st3{fill:none;}
	.st4{font-family:'ArialMT';}
	.st5{font-size:11.38px;}
	.st6{fill:#4D4D4D;}
	.st7{font-size:11px;}
	.st8{font-size:9.9px;}
	.st9{font-size:13.2px;}
</style>
<g>
</g>
<g>
	<line class="st0" x1="38.2" y1="380.5" x2="462.5" y2="380.5"/>
</g>
<g>
	<line class="st0" x1="38.2" y1="275.7" x2="462.5" y2="275.7"/>
</g>
<g>
	<line class="st0" x1="38.2" y1="170.9" x2="462.5" y2="170.9"/>
</g>
<g>
	<line class="st0" x1="38.2" y1="66.2" x2="462.5" y2="66.2"/>
</g>
<g>
	<line class="st1" x1="38.2" y1="432.9" x2="462.5" y2="432.9"/>
</g>
<g>
	<line class="st1" x1="38.2" y1="328.1" x2="462.5" y2="328.1"/>
</g>
<g>
	<line class="st1" x1="38.2" y1="223.3" x2="462.5" y2="223.3"/>
</g>
<g>
	<line class="st1" x1="38.2" y1="118.6" x2="462.5" y2="118.6"/>
</g>
<g>
	<line class="st1" x1="79.2" y1="451.7" x2="79.2" y2="37.9"/>
</g>
<g>
	<line class="st1" x1="147.7" y1="451.7" x2="147.7" y2="37.9"/>
</g>
<g>
	<line class="st1" x1="216.1" y1="451.7" x2="216.1" y2="37.9"/>
</g>
<g>
	<line class="st1" x1="284.6" y1="451.7" x2="284.6" y2="37.9"/>
</g>
<g>
	<line class="st1" x1="353" y1="451.7" x2="353" y2="37.9"/>
</g>
<g>
	<line class="st1" x1="421.5" y1="451.7" x2="421.5" y2="37.9"/>
</g>
<g>
	<rect x="48.4" y="56.7" class="st2" width="61.6" height="376.2"/>
</g>
<g>
	<rect x="116.9" y="383.6" class="st2" width="61.6" height="49.2"/>
</g>
<g>
	<rect x="185.3" y="380.6" class="st2" width="61.6" height="52.2"/>
</g>
<g>
	<rect x="253.8" y="401.5" class="st2" width="61.6" height="31.3"/>
</g>
<g>
	<rect x="322.2" y="422.7" class="st2" width="61.6" height="10.1"/>
</g>
<g>
	<rect x="390.7" y="428.1" class="st2" width="61.6" height="4.7"/>
</g>
<g>
	<g>
		<rect x="204.7" y="368.9" class="st3" width="22.8" height="13.5"/>
		<text transform="matrix(1 0 0 1 204.7402 378.6899)" class="st4 st5">10%</text>
	</g>
</g>
<g>
	<g>
		<rect x="63.1" y="44.9" class="st3" width="32.3" height="13.5"/>
		<text transform="matrix(1 0 0 1 63.1099 54.71)" class="st4 st5">71.8%</text>
	</g>
</g>
<g>
	<g>
		<rect x="134.7" y="371.9" class="st3" width="25.9" height="13.5"/>
		<text transform="matrix(1 0 0 1 134.7202 381.6699)" class="st4 st5">9.4%</text>
	</g>
</g>
<g>
	<g>
		<rect x="340" y="411" class="st3" width="25.9" height="13.5"/>
		<text transform="matrix(1 0 0 1 340.04 420.7803)" class="st4 st5">1.9%</text>
	</g>
</g>
<g>
	<g>
		<rect x="276.4" y="389.8" class="st3" width="16.5" height="13.5"/>
		<text transform="matrix(1 0 0 1 276.3501 399.5898)" class="st4 st5">6%</text>
	</g>
</g>
<g>
	<g>
		<rect x="408.5" y="416.4" class="st3" width="25.9" height="13.5"/>
		<text transform="matrix(1 0 0 1 408.4805 426.1602)" class="st4 st5">0.9%</text>
	</g>
</g>
<g>
	<g>
		<rect x="27.1" y="427.2" class="st3" width="6.1" height="13"/>
		<text transform="matrix(1 0 0 1 27.1299 436.6504)" class="st6 st4 st7">0</text>
	</g>
</g>
<g>
	<g>
		<rect x="21" y="322.4" class="st3" width="12.2" height="13"/>
		<text transform="matrix(1 0 0 1 21.0098 331.8799)" class="st6 st4 st7">20</text>
	</g>
</g>
<g>
	<g>
		<rect x="21" y="217.7" class="st3" width="12.2" height="13"/>
		<text transform="matrix(1 0 0 1 21.0098 227.1104)" class="st6 st4 st7">40</text>
	</g>
</g>
<g>
	<g>
		<rect x="21" y="112.9" class="st3" width="12.2" height="13"/>
		<text transform="matrix(1 0 0 1 21.0098 122.3398)" class="st6 st4 st7">60</text>
	</g>
</g>
<g>
</g>
<g>
</g>
<g>
</g>
<g>
</g>
<g>
</g>
<g>
	<g>
		
			<rect x="104.9" y="443.8" transform="matrix(0.6428 -0.7661 0.7661 0.6428 -335.29 260.2443)" class="st3" width="13" height="91.7"/>
		<text transform="matrix(0.766 0.6428 -0.6428 0.766 74.3802 462.4)" class="st6 st4 st7">No Earned Income</text>
	</g>
</g>
<g>
	<g>
		
			<rect x="151.1" y="454.1" transform="matrix(0.6428 -0.7661 0.7661 0.6428 -304.4884 288.9613)" class="st3" width="13" height="33.6"/>
		<text transform="matrix(0.766 0.6428 -0.6428 0.766 142.8199 462.3999)" class="st6 st4 st7">0 to 50</text>
	</g>
</g>
<g>
	<g>
		<text transform="matrix(0.766 0.6428 -0.6428 0.766 211.2599 462.4001)" class="st6 st4 st7">50 to 100</text>
	</g>
</g>
<g>
	<g>
		<text transform="matrix(0.766 0.6428 -0.6428 0.766 279.7101 462.4001)" class="st6 st4 st7">100 to 150</text>
	</g>
</g>
<g>
	<g>
		<text transform="matrix(0.766 0.6428 -0.6428 0.766 348.15 462.4001)" class="st6 st4 st7">150 to 200</text>
	</g>
</g>
<g>
	<g>
		
			<rect x="434.7" y="449.6" transform="matrix(0.6428 -0.7661 0.7661 0.6428 -209.499 509.1673)" class="st3" width="13" height="59.3"/>
		<text transform="matrix(0.766 0.6428 -0.6428 0.766 416.5901 462.4007)" class="st6 st4 st7">200 or more</text>
	</g>
</g>
<g>
	<g>
		<rect x="167.5" y="525" class="st3" width="165.7" height="13"/>
		<text transform="matrix(1 0 0 1 167.5 534.4004)" class="st4 st7">Earned Income as Percent of FPL</text>
	</g>
</g>
<g>
	<g>
		<text transform="matrix(6.123234e-17 -1 1 6.123234e-17 13.05 295.2002)" class="st4 st7">Share of Months (%)</text>
	</g>
</g>
<g>
	<g>
		<text transform="matrix(1 0 0 1 38.18 30.44)" class="st4 st8">as percent of Federal Poverty Level (FPL)</text>
	</g>
</g>
<g>
	<g>
		<text transform="matrix(1 0 0 1 38.18 14.56)" class="st4 st9">Net Households Monthly Earned Income</text>
	</g>
</g>
</svg>
