<?xml version="1.0" encoding="utf-8"?>
<!-- Generator: Adobe Illustrator 22.0.1, SVG Export Plug-In . SVG Version: 6.00 Build 0)  -->
<svg version="1.1" id="Layer_1" xmlns="http://www.w3.org/2000/svg" xmlns:xlink="http://www.w3.org/1999/xlink" x="0px" y="0px"
	 viewBox="0 0 503.9 503.4" style="enable-background:new 0 0 503.9 503.4;" xml:space="preserve">
<style type="text/css">
	.st0{fill:none;stroke:#EBEBEB;stroke-width:0.53;stroke-linejoin:round;stroke-miterlimit:10;}
	.st1{fill:none;stroke:#EBEBEB;stroke-width:1.07;stroke-linejoin:round;stroke-miterlimit:10;}
	.st2{fill:#92B5BF;}
	.st3{fill:none;}
	.st4{fill:#4D4D4D;}
	.st6{font-size:11px;}
	.st7{enable-background:new    ;}
	.st8{letter-spacing:3;}
	.st9{letter-spacing:6;}
	.st10{font-size:9.9px;}
	.st11{font-size:13.2px;}
</style>
<g>
</g>
<g>
	<line class="st0" x1="44.3" y1="376" x2="498.5" y2="376"/>
</g>
<g>
	<line class="st0" x1="44.3" y1="282.9" x2="498.5" y2="282.9"/>
</g>
<g>
	<line class="st0" x1="44.3" y1="189.8" x2="498.5" y2="189.8"/>
</g>
<g>
	<line class="st0" x1="44.3" y1="96.6" x2="498.5" y2="96.6"/>
</g>
<g>
	<line class="st1" x1="44.3" y1="422.6" x2="498.5" y2="422.6"/>
</g>
<g>
	<line class="st1" x1="44.3" y1="329.4" x2="498.5" y2="329.4"/>
</g>
<g>
	<line class="st1" x1="44.3" y1="236.3" x2="498.5" y2="236.3"/>
</g>
<g>
	<line class="st1" x1="44.3" y1="143.2" x2="498.5" y2="143.2"/>
</g>
<g>
	<line class="st1" x1="44.3" y1="50.1" x2="498.5" y2="50.1"/>
</g>
<g>
	<line class="st1" x1="73.9" y1="441" x2="73.9" y2="35.5"/>
</g>
<g>
	<line class="st1" x1="123.3" y1="441" x2="123.3" y2="35.5"/>
</g>
<g>
	<line class="st1" x1="172.6" y1="441" x2="172.6" y2="35.5"/>
</g>
<g>
	<line class="st1" x1="222" y1="441" x2="222" y2="35.5"/>
</g>
<g>
	<line class="st1" x1="271.4" y1="441" x2="271.4" y2="35.5"/>
</g>
<g>
	<line class="st1" x1="320.7" y1="441" x2="320.7" y2="35.5"/>
</g>
<g>
	<line class="st1" x1="370.1" y1="441" x2="370.1" y2="35.5"/>
</g>
<g>
	<line class="st1" x1="419.5" y1="441" x2="419.5" y2="35.5"/>
</g>
<g>
	<line class="st1" x1="468.8" y1="441" x2="468.8" y2="35.5"/>
</g>
<g>
	<rect x="51.7" y="53.9" class="st2" width="44.4" height="368.6"/>
</g>
<g>
	<rect x="101.1" y="97.1" class="st2" width="44.4" height="325.4"/>
</g>
<g>
	<rect x="150.4" y="243.9" class="st2" width="44.4" height="178.7"/>
</g>
<g>
	<rect x="199.8" y="266.9" class="st2" width="44.4" height="155.7"/>
</g>
<g>
	<rect x="249.2" y="362.6" class="st2" width="44.4" height="59.9"/>
</g>
<g>
	<rect x="298.5" y="376.6" class="st2" width="44.4" height="46"/>
</g>
<g>
	<rect x="347.9" y="376.6" class="st2" width="44.4" height="45.9"/>
</g>
<g>
	<rect x="397.3" y="386.6" class="st2" width="44.4" height="36"/>
</g>
<g>
	<rect x="446.6" y="411.8" class="st2" width="44.4" height="10.8"/>
</g>
<g>
	<g>
		<rect x="33.2" y="416.9" class="st3" width="6.1" height="13"/>
		<text transform="matrix(1 0 0 1 33.25 426.3398)" class="st4 st5 st6">0</text>
	</g>
</g>
<g>
	<g>
		<rect x="27.1" y="323.8" class="st3" width="12.2" height="13"/>
		<text transform="matrix(1 0 0 1 27.1299 333.2207)" class="st4 st5 st6">25</text>
	</g>
</g>
<g>
	<g>
		<rect x="27.1" y="230.7" class="st3" width="12.2" height="13"/>
		<text transform="matrix(1 0 0 1 27.1299 240.1006)" class="st4 st5 st6">50</text>
	</g>
</g>
<g>
	<g>
		<rect x="27.1" y="137.5" class="st3" width="12.2" height="13"/>
		<text transform="matrix(1 0 0 1 27.1299 146.9707)" class="st4 st5 st6">75</text>
	</g>
</g>
<g>
	<g>
		<text transform="matrix(1 0 0 1 21.01 53.85)" class="st4 st5 st6">100</text>
	</g>
</g>
<g>
</g>
<g>
</g>
<g>
</g>
<g>
	<g>
		<text transform="matrix(0.7071 0.7071 -0.7071 0.7071 68.5603 451.27)" class="st4 st5 st6">Medicaid</text>
	</g>
</g>
<g>
	<g>
		<polygon class="st3" points="124.6,444.6 145.8,465.6 136.6,474.8 115.4,453.8 		"/>
		<text transform="matrix(0.7071 0.7071 -0.7071 0.7071 118.0372 451.1969)" class="st7"><tspan x="0" y="0" class="st4 st5 st6 st8">SNAP</tspan></text>
	</g>
</g>
<g>
	<g>
		<text transform="matrix(0.7071 0.7071 -0.7071 0.7071 167.2995 451.27)" class="st4 st5 st6">RSDI</text>
	</g>
</g>
<g>
	<g>

			<rect x="218.5" y="446.6" transform="matrix(0.7071 -0.7071 0.7071 0.7071 -256.16 292.5037)" class="st3" width="13" height="17.7"/>
		<text transform="matrix(0.7071 0.7071 -0.7071 0.7071 216.6603 451.2712)" class="st4 st5 st6">SSI</text>
	</g>
</g>
<g>
	<g>
		<polygon class="st3" points="272.9,444.6 293.2,464.3 283.7,473.5 263.4,453.8 		"/>
		<text transform="matrix(0.7071 0.7071 -0.7071 0.7071 266.4947 450.9618)" class="st7"><tspan x="0" y="0" class="st4 st5 st6 st8">TANF</tspan></text>
	</g>
</g>
<g>
	<g>

			<rect x="314.8" y="447.6" transform="matrix(0.7071 -0.7071 0.7071 0.7071 -226.257 359.9366)" class="st3" width="13" height="11"/>
		<text transform="matrix(0.7071 0.7071 -0.7071 0.7071 315.3904 451.27)" class="st4 st5 st6">UI</text>
	</g>
</g>
<g>
	<g>
		<polygon class="st3" points="371.5,444.6 393.1,466.1 383.8,475.3 362.2,453.8 		"/>
		<text transform="matrix(0.7071 0.7071 -0.7071 0.7071 364.8672 451.1969)" class="st7"><tspan x="0" y="0" class="st4 st5 st6 st8">CCAP</tspan></text>
	</g>
</g>
<g>
	<g>

			<rect x="416" y="446.6" transform="matrix(0.7071 -0.7071 0.7071 0.7071 -198.3241 432.1385)" class="st3" width="13" height="17.7"/>
		<text transform="matrix(0.7071 0.7071 -0.7071 0.7071 414.1202 451.2715)" class="st4 st5 st6">TDI</text>
	</g>
</g>
<g>
	<g>
		<polygon class="st3" points="470.4,444.6 486.8,460.5 477.3,469.7 460.9,453.8 		"/>
		<text transform="matrix(0.7071 0.7071 -0.7071 0.7071 463.9833 450.9659)" class="st7"><tspan x="0" y="0" class="st4 st5 st6 st9">GPA</tspan></text>
	</g>
</g>
<g>
	<g>
		<rect x="240.5" y="486" class="st3" width="61.8" height="13"/>
		<text transform="matrix(1 0 0 1 240.5 495.4502)" class="st5 st6">Benefit Type</text>
	</g>
</g>
<g>
	<g>
		<text transform="matrix(6.123234e-17 -1 1 6.123234e-17 13.05 267.2803)" class="st5 st6">Percent (%)</text>
	</g>
</g>
<g>
	<g>
		<rect x="44.3" y="19.6" class="st3" width="104.6" height="11.7"/>
		<text transform="matrix(1 0 0 1 44.2998 28.0596)" class="st5 st10">any time in past 5 years</text>
	</g>
</g>
<g>
	<g>
		<text transform="matrix(1 0 0 1 44.3 14.56)" class="st5 st11">Share of Net Households on Benefits</text>
	</g>
</g>
</svg>
